<svg xmlns="http://www.w3.org/2000/svg" xmlns:xlink="http://www.w3.org/1999/xlink" width="500" zoomAndPan="magnify" viewBox="0 0 375 374.999991" height="500" preserveAspectRatio="xMidYMid meet" version="1.0"><defs><clipPath id="9f44b8f23a"><path d="M 43.1875 37.5 L 331.808594 37.5 L 331.808594 338 L 43.1875 338 Z M 43.1875 37.5 " clip-rule="nonzero"/></clipPath><clipPath id="538302c711"><path d="M 323.148438 137.554688 C 328.378906 152.882812 331.808594 170.417969 331.808594 187.578125 C 331.808594 204.742188 328.867188 221.253906 323.636719 236.472656 C 323.476562 236.796875 323.476562 237.121094 323.3125 237.445312 C 302.390625 294.59375 247.144531 336.691406 184.371094 337.5 L 43.1875 337.5 L 43.1875 37.5 L 184.269531 37.5 C 247.472656 38.308594 302.714844 79.753906 323.148438 137.554688 Z M 323.148438 137.554688 " clip-rule="nonzero"/></clipPath><clipPath id="2f7d8cfab9"><path d="M 0.1875 0.5 L 288.808594 0.5 L 288.808594 300.679688 L 0.1875 300.679688 Z M 0.1875 0.5 " clip-rule="nonzero"/></clipPath><clipPath id="ccae3bc2ce"><path d="M 280.148438 100.554688 C 285.378906 115.882812 288.808594 133.417969 288.808594 150.578125 C 288.808594 167.742188 285.867188 184.253906 280.636719 199.472656 C 280.476562 199.796875 280.476562 200.121094 280.3125 200.445312 C 259.390625 257.59375 204.144531 299.691406 141.371094 300.5 L 0.1875 300.5 L 0.1875 0.5 L 141.269531 0.5 C 204.472656 1.308594 259.714844 42.753906 280.148438 100.554688 Z M 280.148438 100.554688 " clip-rule="nonzero"/></clipPath><clipPath id="686502991e"><rect x="0" width="289" y="0" height="301"/></clipPath></defs><g clip-path="url(#9f44b8f23a)"><g clip-path="url(#538302c711)"><g transform="matrix(1, 0, 0, 1, 43, 37)"><g clip-path="url(#686502991e)"><g clip-path="url(#2f7d8cfab9)"><g clip-path="url(#ccae3bc2ce)"><path fill="#d93025" d="M 288.808594 0.5 L 288.808594 300.394531 L 0.1875 300.394531 L 0.1875 0.5 Z M 288.808594 0.5 " fill-opacity="1" fill-rule="nonzero"/></g></g></g></g></g></g></svg>