<svg xmlns="http://www.w3.org/2000/svg" xmlns:xlink="http://www.w3.org/1999/xlink" width="500" zoomAndPan="magnify" viewBox="0 0 375 374.999991" height="500" preserveAspectRatio="xMidYMid meet" version="1.0"><defs><clipPath id="141415664e"><path d="M 38 84 L 337.5 84 L 337.5 291 L 38 291 Z M 38 84 " clip-rule="nonzero"/></clipPath></defs><path fill="#4285f4" d="M 190.441406 206.011719 C 188.558594 206.011719 186.699219 205.71875 184.851562 205.117188 L 99.207031 176.554688 C 97.652344 180.589844 96.875 185.789062 96.875 193.378906 C 102.464844 196.613281 107.910156 203.117188 107.910156 214.332031 C 107.910156 221.199219 104.476562 226.140625 101.523438 229.425781 C 114.230469 244.164062 149.195312 254.765625 190.453125 254.765625 C 242.441406 254.765625 284.570312 237.941406 284.570312 217.222656 C 284.570312 212.648438 284.570312 193.953125 284.570312 175.601562 L 196.007812 205.117188 C 194.183594 205.71875 192.324219 206.011719 190.441406 206.011719 Z M 190.441406 206.011719 " fill-opacity="1" fill-rule="nonzero"/><g clip-path="url(#141415664e)"><path fill="#4285f4" d="M 333.476562 131.917969 L 192.300781 84.859375 C 191.078125 84.460938 189.792969 84.460938 188.582031 84.859375 L 47.40625 131.917969 C 45.007812 132.71875 43.382812 134.964844 43.382812 137.496094 C 43.382812 140.023438 45.007812 142.273438 47.40625 143.070312 L 79.769531 153.859375 C 72.324219 162.496094 67.992188 174.671875 66.40625 194.484375 C 61.289062 196.894531 57.675781 202.035156 57.675781 208.082031 C 57.675781 214.238281 61.371094 219.472656 66.640625 221.835938 C 62.042969 261.894531 38.054688 275.25 38.054688 278.671875 C 38.054688 280.414062 56.628906 290.4375 61.042969 290.4375 C 67.863281 290.4375 84.242188 278.859375 84.242188 253.859375 C 84.242188 239.128906 82.910156 228 81.511719 220.105469 C 85.289062 217.367188 87.910156 213.117188 87.910156 208.082031 C 87.910156 202.589844 84.839844 198 80.453125 195.355469 C 82.933594 162.660156 93.042969 157.1875 117.488281 147.046875 C 119.933594 146.082031 124.558594 144.210938 127.230469 143.105469 C 132.03125 141.128906 136.371094 139.367188 140.535156 137.695312 C 153.980469 132.355469 165.347656 128.058594 174.019531 124.871094 C 183.511719 121.484375 187.769531 120.25 187.921875 120.199219 C 191.558594 118.976562 195.605469 120.941406 196.851562 124.648438 C 198.089844 128.34375 196.113281 132.34375 192.40625 133.589844 C 192.125 133.683594 175.605469 138.402344 132.628906 156.164062 C 129.863281 157.308594 127.230469 158.34375 124.722656 159.332031 C 119.628906 161.34375 115.40625 162.953125 111.863281 164.578125 L 188.582031 190.140625 C 189.195312 190.332031 189.804688 190.4375 190.441406 190.4375 C 191.078125 190.4375 191.6875 190.332031 192.300781 190.128906 L 333.476562 143.070312 C 335.875 142.273438 337.5 140.023438 337.5 137.496094 C 337.5 134.964844 335.875 132.71875 333.476562 131.917969 Z M 333.476562 131.917969 " fill-opacity="1" fill-rule="nonzero"/></g></svg>