<svg xmlns="http://www.w3.org/2000/svg" xmlns:xlink="http://www.w3.org/1999/xlink" width="500" zoomAndPan="magnify" viewBox="0 0 375 374.999991" height="500" preserveAspectRatio="xMidYMid meet" version="1.0"><defs><clipPath id="ed1b27b88f"><path d="M 37.5 37.5 L 337.5 37.5 L 337.5 337.5 L 37.5 337.5 Z M 37.5 37.5 " clip-rule="nonzero"/></clipPath></defs><g clip-path="url(#ed1b27b88f)"><path fill="#000000" d="M 187.5 252.875 C 151.394531 252.875 122.125 223.605469 122.125 187.5 C 122.125 151.394531 151.394531 122.125 187.5 122.125 C 223.605469 122.125 252.875 151.394531 252.875 187.5 C 252.875 223.605469 223.605469 252.875 187.5 252.875 Z M 337.507812 155.25 C 333.558594 136.796875 326.292969 119.574219 316.363281 104.238281 L 284.847656 113.898438 L 261.101562 90.152344 L 270.761719 58.636719 C 255.425781 48.707031 238.203125 41.441406 219.75 37.492188 L 204.289062 66.621094 L 170.710938 66.621094 L 155.25 37.492188 C 136.796875 41.441406 119.574219 48.707031 104.238281 58.636719 L 113.898438 90.152344 L 90.152344 113.898438 L 58.636719 104.238281 C 48.707031 119.574219 41.441406 136.796875 37.492188 155.25 L 66.621094 170.710938 L 66.621094 204.289062 L 37.492188 219.75 C 41.441406 238.203125 48.707031 255.425781 58.636719 270.761719 L 90.152344 261.101562 L 113.898438 284.847656 L 104.238281 316.363281 C 119.574219 326.292969 136.796875 333.558594 155.25 337.507812 L 170.710938 308.378906 L 204.289062 308.378906 L 219.75 337.507812 C 238.203125 333.558594 255.425781 326.292969 270.761719 316.363281 L 261.101562 284.847656 L 284.847656 261.101562 L 316.363281 270.761719 C 326.292969 255.425781 333.558594 238.203125 337.507812 219.75 L 308.378906 204.289062 L 308.378906 170.710938 L 337.507812 155.25 " fill-opacity="1" fill-rule="nonzero"/></g></svg>