<svg xmlns="http://www.w3.org/2000/svg" xmlns:xlink="http://www.w3.org/1999/xlink" width="500" zoomAndPan="magnify" viewBox="0 0 375 374.999991" height="500" preserveAspectRatio="xMidYMid meet" version="1.0"><defs><clipPath id="1fb8026b96"><path d="M 37.5 37.5 L 337.5 37.5 L 337.5 337.5 L 37.5 337.5 Z M 37.5 37.5 " clip-rule="nonzero"/></clipPath></defs><g clip-path="url(#1fb8026b96)"><path fill="#000000" d="M 293.566406 81.433594 C 265.234375 53.101562 227.566406 37.5 187.5 37.5 C 147.433594 37.5 109.765625 53.101562 81.433594 81.433594 C 53.101562 109.765625 37.5 147.433594 37.5 187.5 C 37.5 227.566406 53.101562 265.234375 81.433594 293.566406 C 109.765625 321.898438 147.433594 337.5 187.5 337.5 C 227.566406 337.5 265.234375 321.898438 293.566406 293.566406 C 321.898438 265.234375 337.5 227.566406 337.5 187.5 C 337.5 147.433594 321.898438 109.765625 293.566406 81.433594 Z M 54.089844 187.5 C 54.089844 170.792969 57.1875 154.800781 62.820312 140.046875 L 116.773438 140.046875 C 114.355469 155.144531 113.089844 171.125 113.089844 187.5 C 113.089844 203.324219 114.265625 218.785156 116.53125 233.433594 L 62.242188 233.433594 C 56.96875 219.105469 54.089844 203.632812 54.089844 187.5 Z M 129.683594 187.5 C 129.683594 171.019531 131.019531 155.015625 133.578125 140.046875 L 179.203125 140.046875 L 179.203125 233.433594 L 133.320312 233.433594 C 130.929688 218.90625 129.683594 203.421875 129.683594 187.5 Z M 226.730469 90.808594 C 231.28125 100.558594 235.054688 111.558594 237.984375 123.457031 L 195.796875 123.457031 L 195.796875 55.628906 C 207.042969 59.753906 217.988281 72.066406 226.730469 90.808594 Z M 179.203125 55.628906 L 179.203125 123.457031 L 137.015625 123.457031 C 139.945312 111.558594 143.71875 100.558594 148.269531 90.808594 C 157.011719 72.066406 167.957031 59.753906 179.203125 55.628906 Z M 179.203125 250.023438 L 179.203125 319.371094 C 167.957031 315.246094 157.011719 302.933594 148.269531 284.191406 C 143.527344 274.027344 139.628906 262.503906 136.648438 250.023438 Z M 195.796875 319.371094 L 195.796875 250.023438 L 238.351562 250.023438 C 235.371094 262.503906 231.472656 274.027344 226.730469 284.191406 C 217.988281 302.933594 207.042969 315.246094 195.796875 319.371094 Z M 195.796875 233.433594 L 195.796875 140.046875 L 241.421875 140.046875 C 243.980469 155.015625 245.316406 171.019531 245.316406 187.5 C 245.316406 203.421875 244.070312 218.90625 241.679688 233.433594 Z M 258.226562 140.046875 L 312.179688 140.046875 C 317.8125 154.800781 320.910156 170.792969 320.910156 187.5 C 320.910156 203.632812 318.03125 219.105469 312.757812 233.433594 L 258.46875 233.433594 C 260.734375 218.785156 261.910156 203.324219 261.910156 187.5 C 261.910156 171.125 260.644531 155.144531 258.226562 140.046875 Z M 304.5 123.457031 L 255.015625 123.457031 C 251.710938 108.96875 247.261719 95.574219 241.765625 83.792969 C 237.503906 74.65625 232.738281 66.78125 227.574219 60.242188 C 260.585938 70.664062 288.09375 93.597656 304.5 123.457031 Z M 147.425781 60.242188 C 142.261719 66.78125 137.496094 74.65625 133.234375 83.792969 C 127.738281 95.574219 123.289062 108.96875 119.984375 123.457031 L 70.5 123.457031 C 86.90625 93.597656 114.414062 70.664062 147.425781 60.242188 Z M 69.679688 250.023438 L 119.636719 250.023438 C 122.976562 265.09375 127.542969 279.015625 133.234375 291.207031 C 137.496094 300.34375 142.261719 308.21875 147.425781 314.753906 C 113.855469 304.160156 85.984375 280.621094 69.679688 250.023438 Z M 227.574219 314.753906 C 232.738281 308.21875 237.503906 300.34375 241.765625 291.207031 C 247.457031 279.015625 252.023438 265.09375 255.363281 250.023438 L 305.320312 250.023438 C 289.015625 280.621094 261.144531 304.160156 227.574219 314.753906 Z M 227.574219 314.753906 " fill-opacity="1" fill-rule="nonzero"/></g></svg>