<svg xmlns="http://www.w3.org/2000/svg" xmlns:xlink="http://www.w3.org/1999/xlink" width="500" zoomAndPan="magnify" viewBox="0 0 375 374.999991" height="500" preserveAspectRatio="xMidYMid meet" version="1.0"><defs><clipPath id="655f6e2961"><path d="M 37.5 75 L 304 75 L 304 300 L 37.5 300 Z M 37.5 75 " clip-rule="nonzero"/></clipPath></defs><g clip-path="url(#655f6e2961)"><path fill="#000000" d="M 59.230469 82.375 L 282.136719 82.375 C 290.269531 82.375 296.699219 88.804688 296.699219 96.9375 L 296.699219 114.507812 L 44.679688 114.507812 L 44.679688 96.9375 C 44.679688 88.804688 51.09375 82.375 59.230469 82.375 Z M 59.230469 75.257812 C 47.289062 75.257812 37.5625 84.984375 37.5625 96.9375 L 37.5625 278.269531 C 37.5625 290.226562 47.289062 299.953125 59.230469 299.953125 L 282.136719 299.953125 C 294.09375 299.953125 303.820312 290.226562 303.820312 278.269531 L 303.820312 256.09375 C 303.820312 251.351562 296.699219 251.351562 296.699219 256.09375 L 296.699219 278.269531 C 296.699219 286.402344 290.269531 292.835938 282.136719 292.835938 L 59.230469 292.835938 C 51.09375 292.835938 44.683594 286.402344 44.683594 278.269531 L 44.683594 121.601562 L 296.699219 121.601562 L 296.699219 155.972656 C 296.699219 160.714844 303.820312 160.714844 303.820312 155.972656 L 303.820312 96.9375 C 303.820312 84.984375 294.09375 75.257812 282.136719 75.257812 Z M 59.230469 75.257812 " fill-opacity="1" fill-rule="nonzero"/></g><path fill="#000000" d="M 66.714844 90.21875 C 64.890625 90.429688 63.535156 91.980469 63.558594 93.804688 L 63.558594 103.078125 C 63.535156 105.0625 65.148438 106.6875 67.125 106.6875 C 69.105469 106.6875 70.710938 105.0625 70.671875 103.078125 L 70.671875 93.804688 C 70.710938 91.652344 68.828125 89.964844 66.714844 90.21875 Z M 66.714844 90.21875 " fill-opacity="1" fill-rule="nonzero"/><path fill="#000000" d="M 85.027344 90.21875 C 83.203125 90.429688 81.847656 91.980469 81.871094 93.804688 L 81.871094 103.078125 C 81.847656 105.0625 83.460938 106.6875 85.4375 106.6875 C 87.414062 106.6875 89.023438 105.0625 88.984375 103.078125 L 88.984375 93.804688 C 89.027344 91.652344 87.144531 89.964844 85.027344 90.21875 Z M 85.027344 90.21875 " fill-opacity="1" fill-rule="nonzero"/><path fill="#000000" d="M 183.832031 160.324219 C 179.070312 160.324219 179.445312 167.417969 184.1875 167.417969 L 270.078125 167.417969 C 274.875 167.496094 274.875 160.246094 270.078125 160.324219 Z M 183.832031 160.324219 " fill-opacity="1" fill-rule="evenodd"/><path fill="#000000" d="M 183.832031 181.988281 C 179.070312 181.988281 179.445312 189.105469 184.1875 189.105469 C 212.808594 189.105469 267.707031 189.066406 270.078125 189.105469 C 274.875 189.160156 274.875 181.929688 270.078125 181.988281 Z M 183.832031 181.988281 " fill-opacity="1" fill-rule="evenodd"/><path fill="#000000" d="M 183.832031 203.671875 C 179.070312 203.710938 179.445312 210.765625 184.1875 210.765625 L 261.136719 210.765625 C 265.9375 210.765625 265.9375 203.648438 261.136719 203.671875 C 235.378906 203.730469 209.558594 203.453125 183.832031 203.671875 Z M 183.832031 203.671875 " fill-opacity="1" fill-rule="evenodd"/><path fill="#000000" d="M 183.832031 138.640625 C 179.089844 138.878906 179.445312 145.996094 184.1875 145.757812 L 245.589844 145.757812 C 250.414062 145.824219 250.414062 138.585938 245.589844 138.640625 Z M 183.832031 138.640625 " fill-opacity="1" fill-rule="evenodd"/><path fill="#000000" d="M 184.1875 225.328125 C 182.210938 225.308594 180.578125 226.898438 180.578125 228.898438 C 180.578125 230.882812 182.210938 232.46875 184.1875 232.449219 L 244.179688 232.449219 C 246.15625 232.46875 247.789062 230.882812 247.789062 228.898438 C 247.789062 226.902344 246.15625 225.308594 244.179688 225.328125 Z M 184.1875 225.328125 " fill-opacity="1" fill-rule="evenodd"/><path fill="#000000" d="M 94.574219 189.632812 L 123.101562 219.632812 C 126.347656 223.59375 132.039062 218.179688 128.253906 214.75 L 120.453125 206.507812 L 131.429688 195.140625 L 155.503906 220.152344 L 155.503906 225.328125 L 70.675781 225.328125 L 70.675781 214.761719 Z M 70.675781 145.757812 L 155.507812 145.757812 L 155.507812 209.902344 L 133.980469 187.550781 C 132.054688 185.578125 130.3125 186.042969 128.867188 187.550781 L 115.550781 201.355469 L 97.164062 181.988281 C 95.34375 180.066406 93.402344 180.5 91.988281 181.988281 L 70.675781 204.429688 Z M 66.757812 138.640625 C 64.9375 138.835938 63.558594 140.371094 63.558594 142.210938 L 63.558594 228.898438 C 63.558594 230.859375 65.171875 232.449219 67.125 232.449219 L 159.074219 232.449219 C 161.035156 232.449219 162.621094 230.863281 162.621094 228.898438 L 162.621094 142.210938 C 162.621094 140.226562 161.035156 138.640625 159.074219 138.640625 L 67.125 138.640625 C 67.007812 138.640625 66.890625 138.640625 66.757812 138.640625 Z M 66.757812 138.640625 " fill-opacity="1" fill-rule="evenodd"/><path fill="#000000" d="M 131.921875 159.089844 C 135.488281 159.089844 138.289062 161.875 138.289062 165.417969 C 138.289062 168.992188 135.488281 171.789062 131.921875 171.789062 C 128.351562 171.789062 125.550781 168.992188 125.550781 165.417969 C 125.550781 161.878906 128.351562 159.089844 131.921875 159.089844 Z M 131.921875 151.972656 C 124.511719 151.972656 118.453125 158.03125 118.453125 165.421875 C 118.453125 172.832031 124.511719 178.910156 131.921875 178.910156 C 139.335938 178.910156 145.390625 172.835938 145.390625 165.421875 C 145.390625 158.03125 139.335938 151.972656 131.921875 151.972656 Z M 131.921875 151.972656 " fill-opacity="1" fill-rule="evenodd"/><path fill="#000000" d="M 257.566406 248.429688 L 274.820312 260.035156 L 257.566406 266.953125 Z M 298.167969 187.226562 L 316.578125 199.574219 L 279.46875 254.546875 L 261.023438 242.171875 Z M 316.496094 165.875 C 319.070312 165.636719 322.011719 166.523438 324.457031 168.148438 C 326.890625 169.792969 328.753906 172.167969 329.515625 174.617188 C 330.257812 177.066406 330.082031 179.574219 328.140625 182.457031 L 320.578125 193.695312 L 302.167969 181.324219 L 309.753906 170.089844 C 311.695312 167.203125 313.933594 166.113281 316.496094 165.875 Z M 315.894531 158.796875 C 311.402344 159.191406 306.875 161.597656 303.835938 166.09375 L 251.0625 244.199219 C 250.667969 244.78125 250.449219 245.492188 250.449219 246.21875 L 250.449219 272.253906 C 250.449219 274.761719 253.003906 276.511719 255.355469 275.546875 L 279.761719 265.679688 C 280.433594 265.433594 280.996094 264.957031 281.386719 264.371094 L 334.070312 186.433594 C 337.109375 181.953125 337.636719 176.851562 336.320312 172.542969 C 335.011719 168.242188 332.027344 164.675781 328.402344 162.226562 C 324.777344 159.796875 320.378906 158.382812 315.894531 158.796875 Z M 315.894531 158.796875 " fill-opacity="1" fill-rule="nonzero"/><path fill="#000000" d="M 67.183594 247.019531 C 65.183594 246.976562 63.582031 248.585938 63.582031 250.566406 C 63.582031 252.542969 65.183594 254.15625 67.183594 254.136719 L 231.941406 254.136719 C 233.941406 254.15625 235.550781 252.546875 235.550781 250.566406 C 235.550781 248.585938 233.941406 246.976562 231.941406 247.019531 Z M 67.183594 247.019531 " fill-opacity="1" fill-rule="evenodd"/><path fill="#000000" d="M 67.183594 268.679688 C 65.183594 268.660156 63.582031 270.25 63.582031 272.25 C 63.582031 274.234375 65.183594 275.816406 67.183594 275.796875 L 231.941406 275.796875 C 233.941406 275.816406 235.550781 274.234375 235.550781 272.25 C 235.550781 270.25 233.941406 268.660156 231.941406 268.679688 Z M 67.183594 268.679688 " fill-opacity="1" fill-rule="evenodd"/></svg>