<svg xmlns="http://www.w3.org/2000/svg" xmlns:xlink="http://www.w3.org/1999/xlink" width="500" zoomAndPan="magnify" viewBox="0 0 375 374.999991" height="500" preserveAspectRatio="xMidYMid meet" version="1.0"><defs><clipPath id="a24417af0a"><path d="M 38 84 L 337.5 84 L 337.5 291 L 38 291 Z M 38 84 " clip-rule="nonzero"/></clipPath></defs><path fill="#000000" d="M 190.441406 205.976562 C 188.558594 205.976562 186.699219 205.683594 184.851562 205.085938 L 99.207031 176.527344 C 97.652344 180.5625 96.875 185.761719 96.875 193.347656 C 102.464844 196.582031 107.910156 203.085938 107.910156 214.292969 C 107.910156 221.164062 104.476562 226.101562 101.523438 229.382812 C 114.230469 244.121094 149.195312 254.71875 190.453125 254.71875 C 242.441406 254.71875 284.570312 237.898438 284.570312 217.1875 C 284.570312 212.613281 284.570312 193.921875 284.570312 175.574219 L 196.007812 205.085938 C 194.183594 205.683594 192.324219 205.976562 190.441406 205.976562 Z M 190.441406 205.976562 " fill-opacity="1" fill-rule="nonzero"/><g clip-path="url(#a24417af0a)"><path fill="#000000" d="M 333.476562 131.90625 L 192.300781 84.859375 C 191.078125 84.460938 189.792969 84.460938 188.582031 84.859375 L 47.40625 131.90625 C 45.007812 132.703125 43.382812 134.953125 43.382812 137.480469 C 43.382812 140.007812 45.007812 142.253906 47.40625 143.054688 L 79.769531 153.839844 C 72.324219 162.472656 67.992188 174.644531 66.40625 194.453125 C 61.289062 196.863281 57.675781 202.003906 57.675781 208.046875 C 57.675781 214.199219 61.371094 219.433594 66.640625 221.796875 C 62.042969 261.84375 38.054688 275.195312 38.054688 278.617188 C 38.054688 280.355469 56.628906 290.378906 61.042969 290.378906 C 67.863281 290.378906 84.242188 278.804688 84.242188 253.8125 C 84.242188 239.085938 82.910156 227.960938 81.511719 220.070312 C 85.289062 217.328125 87.910156 213.082031 87.910156 208.046875 C 87.910156 202.554688 84.839844 197.96875 80.453125 195.324219 C 82.933594 162.636719 93.042969 157.167969 117.488281 147.03125 C 119.933594 146.066406 124.558594 144.195312 127.230469 143.089844 C 132.03125 141.113281 136.371094 139.351562 140.535156 137.679688 C 153.980469 132.339844 165.347656 128.046875 174.019531 124.859375 C 183.511719 121.472656 187.769531 120.238281 187.921875 120.191406 C 191.558594 118.96875 195.605469 120.933594 196.851562 124.636719 C 198.089844 128.328125 196.113281 132.328125 192.40625 133.574219 C 192.125 133.667969 175.605469 138.386719 132.628906 156.144531 C 129.863281 157.285156 127.230469 158.320312 124.722656 159.308594 C 119.628906 161.320312 115.40625 162.933594 111.863281 164.554688 L 188.582031 190.113281 C 189.195312 190.300781 189.804688 190.40625 190.441406 190.40625 C 191.078125 190.40625 191.6875 190.300781 192.300781 190.101562 L 333.476562 143.054688 C 335.875 142.253906 337.5 140.007812 337.5 137.480469 C 337.5 134.953125 335.875 132.703125 333.476562 131.90625 Z M 333.476562 131.90625 " fill-opacity="1" fill-rule="nonzero"/></g></svg>