<svg width="64" height="64" viewBox="0 0 64 64" fill="none" xmlns="http://www.w3.org/2000/svg">
  <path d="M37.291 8H26.709L25.696 14.366C24.508 14.749 23.378 15.216 22.308 15.765L16.931 12.177L9.452 19.656L13.04 25.033C12.491 26.103 12.024 27.233 11.641 28.421L5.275 29.434V40.016L11.641 41.029C12.024 42.217 12.491 43.347 13.04 44.417L9.452 49.794L16.931 57.273L22.308 53.685C23.378 54.234 24.508 54.701 25.696 55.084L26.709 61.45H37.291L38.304 55.084C39.492 54.701 40.622 54.234 41.692 53.685L47.069 57.273L54.548 49.794L50.96 44.417C51.509 43.347 51.976 42.217 52.359 41.029L58.725 40.016V29.434L52.359 28.421C51.976 27.233 51.509 26.103 50.96 25.033L54.548 19.656L47.069 12.177L41.692 15.765C40.622 15.216 39.492 14.749 38.304 14.366L37.291 8Z" fill="#202124" fill-opacity="0.08"/>
  <path d="M37.291 8H26.709L25.696 14.366C24.508 14.749 23.378 15.216 22.308 15.765L16.931 12.177L9.452 19.656L13.04 25.033C12.491 26.103 12.024 27.233 11.641 28.421L5.275 29.434V40.016L11.641 41.029C12.024 42.217 12.491 43.347 13.04 44.417L9.452 49.794L16.931 57.273L22.308 53.685C23.378 54.234 24.508 54.701 25.696 55.084L26.709 61.45H37.291L38.304 55.084C39.492 54.701 40.622 54.234 41.692 53.685L47.069 57.273L54.548 49.794L50.96 44.417C51.509 43.347 51.976 42.217 52.359 41.029L58.725 40.016V29.434L52.359 28.421C51.976 27.233 51.509 26.103 50.96 25.033L54.548 19.656L47.069 12.177L41.692 15.765C40.622 15.216 39.492 14.749 38.304 14.366L37.291 8Z" stroke="#202124" stroke-width="4" stroke-linejoin="round"/>
  <circle cx="32" cy="34.725" r="9.225" stroke="#202124" stroke-width="4"/>
</svg>
